HIERARCHY
ROOT pelvis
{
  OFFSET 0 100 0
  CHANNELS 6 Xposition Yposition Zposition Zrotation Xrotation Yrotation
  JOINT pelvis_right_femur
  {
    OFFSET -10.78128 -3.44521 -0.5502486
    CHANNELS 3 Zrotation Xrotation Yrotation
    JOINT right_femur_tibia
    {
      OFFSET -0.8047443 -44.0398 -0.1307829
      CHANNELS 3 Zrotation Xrotation Yrotation
      JOINT right_tibia_foot
      {
        OFFSET 3.006224 -47.83518 -5
        CHANNELS 3 Zrotation Xrotation Yrotation
        End Site
        {
          OFFSET 0 -5 15
        }
      }
    }
  }
  JOINT pelvis_left_femur
  {
    OFFSET 10.78128 -3.44521 -0.5502486
    CHANNELS 3 Zrotation Xrotation Yrotation
    JOINT left_femur_tibia
    {
      OFFSET 0.8047443 -44.0398 -0.1307829
      CHANNELS 3 Zrotation Xrotation Yrotation
      JOINT left_tibia_foot
      {
        OFFSET -4.370144 -48.10324 -4.275266
        CHANNELS 3 Zrotation Xrotation Yrotation
        End Site
        {
          OFFSET 0 -5 15
        }
      }
    }
  }
  JOINT pelvis_spine1
  {
    OFFSET 0 6.468898 -3.129235
    CHANNELS 3 Zrotation Xrotation Yrotation
    JOINT spine1
    {
      OFFSET 0 23.15396 4.99043
      CHANNELS 3 Zrotation Xrotation Yrotation
      JOINT spine2
      {
        OFFSET 0 20.79997 -5.064912
        CHANNELS 3 Zrotation Xrotation Yrotation
        JOINT neck
        {
          OFFSET 0 14.38658 9.616178
          CHANNELS 3 Zrotation Xrotation Yrotation
          End Site
          {
            OFFSET 0 20 0
          }
        }
      }
      JOINT right_manubrium
      {
        OFFSET -5.722621 16.35077 3.967754
        CHANNELS 3 Zrotation Xrotation Yrotation
        JOINT right_clavicle
        {
          OFFSET -13.16364 1.694482 -4.693211
          CHANNELS 3 Zrotation Xrotation Yrotation
          JOINT right_humerus
          {
            OFFSET -28.5034 -0.3100689 -2.792744
            CHANNELS 3 Zrotation Xrotation Yrotation
            JOINT right_radius
            {
              OFFSET -25.15693 0.02248979 -1.271978
              CHANNELS 3 Zrotation Xrotation Yrotation
              End Site
              {
                OFFSET -15 0 0
              }
            }
          }
        }
      }
      JOINT left_manubrium
      {
        OFFSET 5.722621 16.35077 3.967754
        CHANNELS 3 Zrotation Xrotation Yrotation
        JOINT left_clavicle
        {
          OFFSET 13.16364 1.694482 -4.693211
          CHANNELS 3 Zrotation Xrotation Yrotation
          JOINT left_humerus
          {
            OFFSET 29.39168 -1.063119 -2.237045
            CHANNELS 3 Zrotation Xrotation Yrotation
            JOINT left_radius
            {
              OFFSET 24.59957 -0.9528479 0.9047498
              CHANNELS 3 Zrotation Xrotation Yrotation
              End Site
              {
                OFFSET 15 -0 -0
              }
            }
          }
        }
      }
    }
  }
}
MOTION
Frames: 9
Frame Time: 0.0416666666667
0 103.5113 0 1.544435 -0.5930062 0.1371816 4.763274 -15.23673 12.61488 -0 37.8163 -0 -3.985498 -19.63126 -3.851411 -7.470459 8.0231 -21.34887 -0 5.895774 -0 22.22172 -7.140891 28.6304 -2.214952 -2.136541 5.010824 2.62471 10.49127 -7.409306 1.093347 21.12866 6.585882 3.315448 -24.91562 8.720391 5.358079 -19.12319 11.50038 86.61166 35.96977 -19.19106 -0 0 14.04155 -8.20013 7.552807 4.915052 6.171874 -21.06536 -2.256025 -91.434 21.04423 20.36946 0 0 -17.07537 12.97717 12.02917 -1.297277
0.4857389 103.6963 1.58452 1.292031 0.4763691 0.2777494 5.552671 -18.3971 12.97152 -0 37.70119 -0 -3.935015 -18.65738 -3.440509 -7.699219 8.933266 -21.92194 -0 6.166449 -0 22.44732 -8.266007 29.26293 -2.176558 -2.13383 4.859222 2.787671 10.45926 -7.581914 1.147283 21.01041 6.660026 3.226915 -25.30772 9.022003 5.358015 -18.99302 11.48614 87.05787 36.24536 -19.83249 -0 0 13.61169 -7.636374 7.660463 4.665968 6.261668 -21.10984 -2.19953 -91.04884 21.07617 19.82221 0 0 -18.18334 13.42554 11.84911 -1.713183
0.8797371 103.5507 3.624107 1.031006 0.1637595 0.353138 5.404195 -20.84515 9.267265 -0 31.96647 -0 -5.251069 -14.4787 -2.666915 -7.457537 10.85299 -20.9006 -0 6.486197 -0 17.68018 -12.69902 27.73544 -2.146629 -1.971287 4.692695 2.807266 10.35631 -7.57595 1.128855 21.07679 6.681384 3.158245 -25.22701 9.003043 5.334836 -18.71962 11.51737 87.12125 36.33542 -19.80956 -0 0 13.16471 -8.018704 7.949427 5.103086 6.131514 -20.97639 -2.205172 -90.71755 21.33857 19.38568 0 0 -18.49573 12.92362 11.75233 -1.086618
1.220638 103.3318 5.867527 0.7451268 0.6997309 0.4225231 5.664167 -23.53249 8.177649 -0 29.56293 -0 -5.602318 -12.53049 -2.250594 -7.365694 11.84745 -20.65581 -0 6.566204 -0 15.64185 -15.04346 27.03005 -2.124353 -1.884663 4.601356 2.824143 10.29032 -7.579697 1.115464 21.11752 6.689216 3.118325 -25.1878 8.981772 5.327519 -18.57224 11.53394 87.15707 36.35752 -19.81883 -0 0 12.92321 -8.219982 8.097445 5.345618 6.04411 -20.90227 -2.207768 -90.58077 21.56776 19.20061 0 0 -18.64227 12.54415 11.73062 -0.6022771
1.518003 102.9932 8.438101 0.3786853 1.155751 0.5213224 5.980255 -26.37954 6.882804 -0 26.48148 -0 -6.20611 -10.03666 -1.718228 -7.14358 12.6384 -19.9523 -0 7.153255 -0 13.85241 -16.96978 25.89947 -2.101794 -1.772851 4.493887 2.834311 10.22296 -7.578463 1.095729 21.16506 6.703178 3.076355 -25.11119 8.946875 5.310748 -18.39006 11.55698 87.19529 36.38857 -19.80455 -0 0 12.63059 -8.533276 8.30721 5.660134 5.946699 -20.82171 -2.222757 -90.37244 21.76742 18.93171 0 0 -18.82367 12.12694 11.66815 -0.08294044
1.784038 102.5782 11.35531 0.02696688 1.698839 0.6723322 6.338892 -28.97038 5.965738 -0 23.64988 -0 -6.676414 -7.852438 -1.250682 -6.932967 13.22691 -19.21473 -0 7.976679 -0 12.56707 -18.29672 24.78739 -2.081877 -1.677674 4.402848 2.843871 10.16851 -7.58151 1.077367 21.20273 6.717126 3.041733 -25.04371 8.915464 5.295208 -18.23523 11.57706 87.23504 36.41037 -19.80402 -0 0 12.37966 -8.812902 8.495254 5.927802 5.86511 -20.76013 -2.239804 -90.1888 21.93201 18.69732 0 0 -18.99085 11.76588 11.60754 0.3673359
2.026431 102.1149 14.70638 -0.3215657 2.137359 0.8935303 6.679393 -31.07754 5.04694 -0 20.7647 -0 -7.260972 -5.589833 -0.7671061 -6.678568 13.69153 -18.27939 -0 9.474706 -0 11.42027 -19.03786 23.44463 -2.063533 -1.581243 4.313863 2.850254 10.12041 -7.584748 1.057399 21.23792 6.733495 3.009858 -24.96463 8.880664 5.27661 -18.08018 11.5981 87.27657 36.43047 -19.80103 -0 0 12.12971 -9.121388 8.697643 6.200664 5.787913 -20.70585 -2.262956 -89.98847 22.06546 18.44589 0 0 -19.16452 11.41879 11.53156 0.7956867
2.249267 101.6642 18.55982 -0.6716605 2.408929 1.192052 6.985617 -32.40409 4.147667 -0 18.18786 -0 -7.96523 -3.411775 -0.3098088 -6.354386 14.03489 -17.23808 -0 11.85934 -0 10.09445 -19.15847 21.79352 -2.047441 -1.490817 4.232676 2.854081 10.08029 -7.588636 1.037474 21.26872 6.750554 2.982157 -24.88174 8.845262 5.257231 -17.93568 11.61833 87.31734 36.44577 -19.79865 -0 0 11.8979 -9.431621 8.89757 6.458832 5.718822 -20.66145 -2.289501 -89.79088 22.16974 18.20074 0 0 -19.33115 11.10033 11.45022 1.185834
2.455033 101.3132 22.97064 -1.044989 2.405012 1.552884 7.276008 -32.63349 3.248266 -0 16.21199 -0 -8.831205 -1.444324 0.08587855 -5.902843 14.1668 -16.07787 -0 15.52756 -0 8.342972 -18.48668 19.6991 -2.033482 -1.403118 4.156602 2.85475 10.04666 -7.592215 1.01719 21.29676 6.768547 2.957609 -24.79059 8.807927 5.236438 -17.79635 11.63838 87.35687 36.45719 -19.79328 -0 0 11.6768 -9.755398 9.10154 6.71245 5.655419 -20.62429 -2.320026 -89.58905 22.247 17.95285 0 0 -19.49344 10.80079 11.36128 1.548818
